<?xml version="1.0"?>
<svg xmlns="http://www.w3.org/2000/svg" height="512px" viewBox="0 -21 512.00021 512" width="512px" class=""><g><path d="m94.980469 286.25c3.066406.558594 5.292969 3.230469 5.292969 6.355469v151.046875c0 14.804687 12.046874 26.851562 26.851562 26.851562h110.734375c4.144531 0 7.503906-3.359375 7.503906-7.503906 0-4.148438-3.359375-7.507812-7.503906-7.507812h-110.734375c-6.527344 0-11.84375-5.3125-11.84375-11.839844v-32.480469h280.175781v32.480469c0 6.527344-5.3125 11.839844-11.84375 11.839844h-110.730469c-4.148437 0-7.507812 3.359374-7.507812 7.507812 0 4.144531 3.359375 7.503906 7.507812 7.503906h110.730469c14.808594 0 26.855469-12.046875 26.855469-26.851562 0-4.5625 0-139.707032 0-150.8125 0-3.144532 2.246094-5.808594 5.347656-6.324219 22.652344-3.789063 43.511719-14.75 60.320313-31.699219 16.636719-16.769531 28.128906-38.207031 33.234375-61.992187.867187-4.054688-1.710938-8.046875-5.765625-8.914063-4.054688-.871094-8.042969 1.710938-8.910157 5.761719-9.113281 42.453125-41.808593 75.421875-81.355468 82.039063-10.363282 1.734374-17.882813 10.621093-17.882813 21.128906v103.324218h-34.1875v-46.355468c0-4.144532-3.359375-7.503906-7.503906-7.503906s-7.503906 3.359374-7.503906 7.503906v46.355468h-34.191407v-46.355468c0-4.144532-3.355468-7.503906-7.503906-7.503906-4.144531 0-7.503906 3.359374-7.503906 7.503906v46.355468h-34.1875v-46.355468c0-4.144532-3.359375-7.503906-7.503906-7.503906-4.148438 0-7.507813 3.359374-7.507813 7.503906v46.355468h-34.183593v-46.355468c0-4.144532-3.359376-7.503906-7.507813-7.503906-4.144531 0-7.503906 3.359374-7.503906 7.503906v46.355468h-34.1875v-46.355468c0-4.144532-3.359375-7.503906-7.503907-7.503906-4.148437 0-7.507812 3.359374-7.507812 7.503906v46.355468h-34.1875v-103.558593c0-10.378907-7.40625-19.261719-17.613281-21.121094-47.894531-8.726563-82.65625-53.507813-82.65625-106.484375 0-70.660156 61.710937-122.6875 124.769531-104.328125 2.222656.648437 4.476562 1.046875 6.722656 1.234375-8.839844 13.882812-18.378906 34.003906-21.707031 59.476562-.585937 4.496094 2.910156 8.480469 7.449219 8.480469 3.710937 0 6.941406-2.753906 7.433594-6.535156 7.757812-59.371094 56.230468-108.316406 116.472656-108.316406 61.175781 0 108.914062 49.6875 116.574218 108.316406.539063 4.113281 4.304688 7.007813 8.414063 6.46875 4.109375-.535156 7.007813-4.304687 6.46875-8.414063-3.28125-25.113281-12.597656-45.019531-21.332031-58.882812.925781-.199219 1.851562-.433594 2.765625-.738281 61.230469-20.492188 123.257812 27.152343 127.964843 94.980469.285157 4.132812 3.875 7.253906 8.007813 6.96875 4.132813-.289063 7.253906-3.875 6.964844-8.007813-5.425781-78.242187-77.292969-131.742187-147.699219-108.175781-3.730469 1.246094-7.820312.355468-10.78125-2.257813-25.039062-28.511719-59.464844-45.269531-97.347656-45.269531-33.59375 0-67.292969 13.488281-94.703125 42.480469-4.644531 4.105469-11.242188 5.59375-17.472657 3.78125-72.746093-21.183594-143.976562 38.203125-143.976562 118.738281 0 60.558594 40.789062 111.378906 94.980469 121.25zm0 0" data-original="#000000" class="active-path" data-old_color="#000000" fill="#FB0000"/></g> </svg>
