<?xml version="1.0"?>
<svg xmlns="http://www.w3.org/2000/svg" height="512px" viewBox="-83 0 512 512" width="512px"><g><path d="m171.453125 140-66.550781 66.550781c-2.929688 2.929688-2.929688 7.675781 0 10.605469 2.929687 2.929688 7.679687 2.929688 10.609375 0l66.546875-66.546875c2.929687-2.929687 2.929687-7.679687 0-10.609375-2.929688-2.925781-7.679688-2.925781-10.605469 0zm0 0" data-original="#000000" class="active-path" data-old_color="#000000" fill="#FB0000"/><path d="m147.964844 121.351562c-2.933594-2.929687-7.679688-2.929687-10.609375 0l-51.105469 51.101563c-2.929688 2.929687-2.929688 7.679687 0 10.609375 2.933594 2.929688 7.679688 2.929688 10.609375 0l51.105469-51.105469c2.925781-2.929687 2.925781-7.675781 0-10.605469zm0 0" data-original="#000000" class="active-path" data-old_color="#000000" fill="#FB0000"/><path d="m200.710938 174.097656c-2.933594-2.929687-7.679688-2.929687-10.609376 0l-51.105468 51.101563c-2.929688 2.929687-2.929688 7.679687 0 10.609375 2.933594 2.929687 7.679687 2.929687 10.609375 0l51.105469-51.105469c2.925781-2.929687 2.925781-7.675781 0-10.605469zm0 0" data-original="#000000" class="active-path" data-old_color="#000000" fill="#FB0000"/><path d="m339.332031 233c4.144531 0 7.503907-3.359375 7.503907-7.5v-125.488281c0-9.785157-7.964844-17.746094-17.75-17.746094-15.699219 0-30.238282 5.027344-42.125 13.539063v-59.09375c0-20.242188-16.46875-36.710938-36.710938-36.710938h-90.089844c-4.144531 0-7.5 3.355469-7.5 7.5s3.355469 7.5 7.5 7.5h90.089844c11.972656 0 21.710938 9.738281 21.710938 21.710938v73.449218c-10.179688 13.050782-15.421876 28.761719-15.421876 44.648438v186.832031c-2.023437.617187-4.125.9375-6.289062.9375h-59.257812c-18.097657 0-31.546876 16.699219-27.742188 34.359375l15.960938 74.050781c5.109374 23.703125-12.398438 46.011719-35.730469 46.011719-23.3125 0-40.84375-22.292969-35.730469-46.011719l16.003906-74.257812c3.789063-17.585938-9.617187-34.152344-27.574218-34.152344h-59.46875c-11.972657 0-21.710938-9.738281-21.710938-21.710937v-284.15625c0-11.972657 9.738281-21.710938 21.710938-21.710938h88.445312c4.144531 0 7.5-3.355469 7.5-7.5s-3.355469-7.5-7.5-7.5h-88.445312c-20.242188 0-36.710938 16.46875-36.710938 36.710938v284.160156c0 20.242187 16.46875 36.710937 36.710938 36.710937h59.46875c8.421874 0 14.683593 7.769531 12.910156 15.988281l-16.003906 74.257813c-7.148438 33.15625 17.613281 64.171875 50.394531 64.171875 32.800781 0 57.539062-31.035156 50.394531-64.171875l-15.960938-74.050781c-1.796874-8.339844 4.5625-16.195313 13.078126-16.195313h59.257812c2.453125 0 4.902344-.261719 7.300781-.753906 2.421875 6.921875 9 11.90625 16.738281 11.90625h19.339844v55.335937c0 16.730469-4.777344 28.066407-11.957031 41.078126-9.023437 16.347656 2.785156 36.394531 21.480469 36.394531h24.835937c10.390625 0 18.847657-8.457031 18.847657-18.847657 0-10.550781 0-211.648437 0-222.195312 0-4.140625-3.359376-7.5-7.5-7.5-4.144532 0-7.5 3.359375-7.5 7.5v93.234375c-13.371094 0-20.117188 0-33.453126 0v-247.558594c8.894532-5.632812 19.421876-8.910156 30.703126-8.910156 1.515624 0 2.75 1.230469 2.75 2.746094v125.488281c-.003907 4.140625 3.355468 7.5 7.496093 7.5zm-11.34375 253.542969h-24.839843c-7.277344 0-11.867188-7.769531-8.347657-14.144531 7.421875-13.441407 13.828125-27.382813 13.828125-48.328126v-30.238281h23.203125v88.863281c0 2.121094-1.726562 3.847657-3.84375 3.847657zm3.84375-117.808594v10.097656h-23.203125v-10.097656zm-57.542969-15c-1.515624 0-2.746093-1.230469-2.746093-2.746094 0-10.917969 0-184 0-196.179687 0-12.773438 4.359375-25.140625 11.839843-34.90625v233.832031zm0 0" data-original="#000000" class="active-path" data-old_color="#000000" fill="#FB0000"/><path d="m123.519531 459.96875c0 11.007812 8.953125 19.960938 19.960938 19.960938 11.007812 0 19.960937-8.953126 19.960937-19.960938s-8.953125-19.960938-19.960937-19.960938c-11.007813 0-19.960938 8.953126-19.960938 19.960938zm24.921875 0c0 2.734375-2.226562 4.960938-4.960937 4.960938s-4.960938-2.226563-4.960938-4.960938 2.226563-4.960938 4.960938-4.960938 4.960937 2.226563 4.960937 4.960938zm0 0" data-original="#000000" class="active-path" data-old_color="#000000" fill="#FB0000"/></g> </svg>
