<svg width="33" height="9" viewBox="0 0 33 9" fill="none" xmlns="http://www.w3.org/2000/svg">
<path d="M2.58 8.952C1.836 8.952 1.22 8.652 0.732 8.052C0.244 7.444 0 6.652 0 5.676C0 4.7 0.168 3.812 0.504 3.012C0.84 2.204 1.32 1.548 1.944 1.044C2.568 0.54 3.232 0.288 3.936 0.288C4.648 0.288 5.22 0.448 5.652 0.768C6.092 1.088 6.312 1.472 6.312 1.92C6.312 2.36 6.18 2.736 5.916 3.048C5.66 3.048 5.372 2.992 5.052 2.88C4.732 2.768 4.492 2.632 4.332 2.472L4.56 1.26C4.368 1.14 4.116 1.08 3.804 1.08C3.316 1.08 2.884 1.5 2.508 2.34C2.132 3.172 1.944 4.2 1.944 5.424C1.944 6.232 2.076 6.82 2.34 7.188C2.612 7.548 2.94 7.728 3.324 7.728C3.956 7.728 4.564 7.432 5.148 6.84L5.64 7.284C5.552 7.412 5.392 7.588 5.16 7.812C4.928 8.036 4.7 8.224 4.476 8.376C4.252 8.52 3.968 8.652 3.624 8.772C3.28 8.892 2.932 8.952 2.58 8.952Z" fill="#DE0F34"/>
<path d="M7.93191 8.952C7.37991 8.952 6.94791 8.76 6.63591 8.376C6.32391 7.984 6.16791 7.44 6.16791 6.744C6.16791 5.856 6.40391 5.092 6.87591 4.452C7.35591 3.812 8.01591 3.492 8.85591 3.492L9.28791 3.516C9.42391 3.444 9.57591 3.408 9.74391 3.408C10.3759 3.408 10.6919 4.004 10.6919 5.196C11.0199 5.18 11.3519 5.136 11.6879 5.064L11.8799 5.016L11.9519 5.484C11.6879 5.596 11.3319 5.696 10.8839 5.784L10.6439 5.832C10.4919 6.672 10.1839 7.404 9.71991 8.028C9.25591 8.644 8.65991 8.952 7.93191 8.952ZM8.57991 7.92C8.91591 7.92 9.21591 7.704 9.47991 7.272C9.75191 6.84 9.93991 6.384 10.0439 5.904C9.18791 5.904 8.75991 5.584 8.75991 4.944C8.75991 4.688 8.81191 4.448 8.91591 4.224L8.97591 4.104C8.94391 4.088 8.90391 4.08 8.85591 4.08C8.80791 4.08 8.77191 4.088 8.74791 4.104C8.54791 4.232 8.35991 4.532 8.18391 5.004C8.00791 5.476 7.91991 6.016 7.91991 6.624C7.91991 7.488 8.13991 7.92 8.57991 7.92Z" fill="#DE0F34"/>
<path d="M12.9592 8.952C12.4072 8.952 11.9752 8.76 11.6632 8.376C11.3512 7.984 11.1952 7.44 11.1952 6.744C11.1952 5.856 11.4312 5.092 11.9032 4.452C12.3832 3.812 13.0432 3.492 13.8832 3.492L14.3152 3.516C14.4512 3.444 14.6032 3.408 14.7712 3.408C15.4032 3.408 15.7192 4.004 15.7192 5.196C16.0472 5.18 16.3793 5.136 16.7153 5.064L16.9073 5.016L16.9792 5.484C16.7153 5.596 16.3593 5.696 15.9113 5.784L15.6713 5.832C15.5193 6.672 15.2112 7.404 14.7472 8.028C14.2832 8.644 13.6872 8.952 12.9592 8.952ZM13.6072 7.92C13.9432 7.92 14.2432 7.704 14.5072 7.272C14.7792 6.84 14.9672 6.384 15.0712 5.904C14.2152 5.904 13.7872 5.584 13.7872 4.944C13.7872 4.688 13.8392 4.448 13.9432 4.224L14.0032 4.104C13.9712 4.088 13.9312 4.08 13.8832 4.08C13.8352 4.08 13.7992 4.088 13.7752 4.104C13.5752 4.232 13.3872 4.532 13.2112 5.004C13.0352 5.476 12.9472 6.016 12.9472 6.624C12.9472 7.488 13.1672 7.92 13.6072 7.92Z" fill="#DE0F34"/>
<path d="M17.5454 0.888C17.5454 0.624 17.5214 0.436 17.4734 0.324C18.0974 0.108 18.6854 0 19.2374 0C19.3094 0.072 19.3454 0.256 19.3454 0.552C19.3454 1.216 19.1254 2.488 18.6854 4.368C19.3974 3.784 20.1014 3.492 20.7974 3.492C21.1094 3.492 21.3734 3.588 21.5894 3.78C21.8054 3.972 21.9134 4.252 21.9134 4.62C21.9134 5.308 21.3494 5.808 20.2214 6.12C20.4854 6.952 20.7174 7.516 20.9174 7.812C21.0054 7.94 21.0694 8.004 21.1094 8.004C21.1974 8.004 21.3814 7.936 21.6614 7.8L21.7934 7.74L21.9854 8.148C21.7934 8.324 21.5254 8.504 21.1814 8.688C20.8454 8.864 20.5374 8.952 20.2574 8.952C19.6334 8.952 19.1974 8.384 18.9494 7.248C18.8374 6.76 18.7694 6.304 18.7454 5.88C19.2574 5.76 19.6374 5.616 19.8854 5.448C20.1414 5.272 20.2694 5.052 20.2694 4.788C20.2694 4.516 20.1334 4.38 19.8614 4.38C19.5894 4.38 19.1334 4.652 18.4934 5.196C18.0934 6.884 17.8934 8.04 17.8934 8.664C17.4534 8.792 16.8814 8.856 16.1774 8.856C16.1694 8.72 16.1654 8.6 16.1654 8.496C16.1654 8.152 16.3934 6.976 16.8494 4.968C17.3134 2.96 17.5454 1.6 17.5454 0.888Z" fill="#DE0F34"/>
<path d="M26.8335 7.584C26.8335 7.76 26.8775 7.848 26.9655 7.848C27.0135 7.848 27.2455 7.744 27.6615 7.536L27.8895 7.98C27.1695 8.628 26.5335 8.952 25.9815 8.952C25.6375 8.952 25.3735 8.836 25.1895 8.604C25.0135 8.372 24.9255 8.084 24.9255 7.74C24.9255 7.396 25.1175 6.456 25.5015 4.92C25.8935 3.376 26.1095 2.316 26.1495 1.74C26.1495 1.612 26.1055 1.46 26.0175 1.284C25.9375 1.1 25.8535 0.952 25.7655 0.84L25.6455 0.672L25.6815 0.492C26.1375 0.356 26.8895 0.288 27.9375 0.288C28.0335 0.472 28.0815 0.74 28.0815 1.092C28.0815 1.436 27.8735 2.44 27.4575 4.104C27.0415 5.768 26.8335 6.928 26.8335 7.584Z" fill="#DE0F34"/>
<path d="M32.3438 3.636C32.3278 3.836 32.2598 4.068 32.1398 4.332C31.8358 4.3 31.5478 4.284 31.2758 4.284H31.0598C30.6918 6.068 30.5078 7.18 30.5078 7.62C30.5078 7.852 30.5558 7.968 30.6518 7.968C30.7558 7.968 31.0238 7.868 31.4558 7.668L31.6718 8.064C30.9598 8.656 30.2998 8.952 29.6918 8.952C29.4118 8.952 29.1798 8.864 28.9958 8.688C28.8198 8.512 28.7318 8.28 28.7318 7.992C28.7318 7.696 28.7638 7.364 28.8278 6.996C28.8998 6.628 28.9958 6.18 29.1158 5.652C29.2358 5.116 29.3238 4.684 29.3798 4.356C29.0838 4.38 28.8638 4.404 28.7198 4.428C28.7038 4.332 28.6958 4.204 28.6958 4.044C28.6958 3.876 28.7078 3.74 28.7318 3.636H29.4878C29.5518 3.204 29.5838 2.796 29.5838 2.412L29.5718 2.04V2.004C30.1958 1.788 30.7838 1.68 31.3358 1.68C31.3678 1.84 31.3838 2.04 31.3838 2.28C31.3838 2.52 31.3158 2.972 31.1798 3.636H32.3438Z" fill="#DE0F34"/>
</svg>
