<svg width="907" height="425" viewBox="0 0 907 425" fill="none" xmlns="http://www.w3.org/2000/svg">
<rect width="907" height="425" fill="#E5E5E5"/>
<g clip-path="url(#clip0)">
<rect width="1440" height="2771" transform="translate(-240 -232)" fill="white"/>
<rect x="-240" y="-121" width="1440" height="578" fill="url(#paint0_linear)"/>
<g style="mix-blend-mode:multiply">
<path d="M484 55H334V292H484V55Z" fill="#CDD2D3"/>
</g>
<path d="M479 47H331V287H479V47Z" fill="#F1F2F2"/>
<path d="M427 122.104V241H367V121.907C368.509 121.54 369.85 120.682 370.808 119.471C371.767 118.259 372.287 116.764 372.287 115.225L371.999 86.0907C373.755 84.9902 376.125 85 378.367 85H383.654C383.654 88.4022 385.018 91.6651 387.447 94.0708C389.875 96.4765 393.169 97.8281 396.603 97.8281C400.038 97.8281 403.331 96.4765 405.76 94.0708C408.188 91.6651 409.552 88.4022 409.552 85H415.623C417.143 84.9965 418.647 85.2973 420.047 85.8844V115.225C420.047 117.05 420.778 118.799 422.08 120.089C423.383 121.379 425.149 122.104 426.99 122.104H427Z" stroke="#8BD2F0" stroke-width="1.96" stroke-miterlimit="10"/>
<path d="M440.137 241L467 228.814L446.705 178.32C445.188 178.605 443.618 178.374 442.248 177.666C440.879 176.957 439.789 175.812 439.154 174.414L427.306 148.049C425.26 147.766 423.127 148.752 421.111 149.661L416.342 151.809C417.043 153.332 417.435 154.976 417.496 156.65C417.557 158.323 417.285 159.992 416.696 161.561C416.107 163.129 415.213 164.568 414.064 165.793C412.915 167.018 411.534 168.007 410 168.702L440.137 241Z" stroke="#8BD2F0" stroke-width="1.96" stroke-miterlimit="10"/>
<path d="M350 231.117L357.608 250.291C361.193 259.371 370.028 264.214 377.332 261.012L385.749 257.332C393.052 254.169 396.077 244.254 392.491 235.174L384.883 216L350 231.117Z" stroke="#8BD2F0" stroke-width="1.96" stroke-miterlimit="10"/>
<path d="M331 173L338 172" stroke="#8BD2F0" stroke-width="1.96" stroke-miterlimit="10"/>
<path d="M350 167L468 134" stroke="#8BD2F0" stroke-width="1.96" stroke-miterlimit="10" stroke-dasharray="13.24 13.24"/>
<path d="M476 132L481 131" stroke="#8BD2F0" stroke-width="1.96" stroke-miterlimit="10"/>
<path d="M331 68L479 82" stroke="#8BD2F0" stroke-width="1.96" stroke-miterlimit="10" stroke-dasharray="14.31 14.31"/>
<path d="M412 260H393V265H412V260Z" fill="#BE7077"/>
<path d="M467 260H422V265H467V260Z" fill="#BE7077"/>
<path d="M454 252H413V255H454V252Z" fill="#BE7077"/>
<g style="mix-blend-mode:multiply">
<path d="M61.0456 76.4795L59.4873 207.771L171.834 209.104L173.392 77.8129L61.0456 76.4795Z" fill="#CDD2D3"/>
</g>
<path d="M57.5583 72.9276L56 204.219L168.347 205.552L169.905 74.261L57.5583 72.9276Z" fill="#F1F2F2"/>
<g style="mix-blend-mode:multiply">
<path d="M249.506 155.501L236.604 1L121 10.5077L134.317 170L227.558 162.299C227.558 162.299 248.972 163.234 250 165.175C250 163.59 249.888 161.926 249.809 160.461H249.888L249.474 155.54L249.506 155.501Z" fill="#CDD2D3"/>
</g>
<g opacity="0.5">
<path opacity="0.5" d="M152 91.3447C151.791 93.4668 150.729 95.4363 149.027 96.8564C147.325 98.2766 145.11 99.0419 142.828 98.9982C140.546 98.9545 138.366 98.1051 136.728 96.6209C135.09 95.1368 134.115 93.1283 134 91C139.431 96.1316 145.478 95.8405 152 91.3447Z" fill="#208CB2"/>
<path opacity="0.5" d="M163 116.953L161.357 198L121 197.203L122.643 116.021C123.664 115.794 124.579 115.228 125.242 114.416C125.904 113.603 126.275 112.591 126.295 111.541L126.501 91.6677C127.7 90.9422 129.295 90.9821 130.795 91.014L134.352 91.0857C134.463 93.3009 135.406 95.3913 136.991 96.936C138.576 98.4806 140.685 99.3648 142.893 99.4102C145.102 99.4557 147.245 98.6592 148.892 97.1811C150.538 95.703 151.566 93.6531 151.768 91.4445L155.856 91.5242C156.877 91.5426 157.884 91.7676 158.817 92.1858L158.412 112.194C158.388 113.438 158.858 114.641 159.716 115.538C160.575 116.434 161.753 116.952 162.992 116.977L163 116.953Z" fill="#27AAE1"/>
<path opacity="0.5" d="M121.464 179.612L121.258 189.75L161.626 190.567L161.832 180.43L121.464 179.612Z" fill="#F1F2F2"/>
</g>
<path d="M233.651 0L247 159.714L188.945 164.5L187.108 164.651L183.489 164.944L181.651 165.095L180.309 165.214L178.536 165.357L134.341 169L125.506 63.2302L125.354 61.3968L125.106 58.4524L124.946 56.5952L124.499 51.1746L124.331 49.2302L121 9.29365L233.651 0Z" fill="#F1F2F2"/>
<path d="M176.978 95.509C174.512 95.6183 172.103 94.7568 170.279 93.1137C168.456 91.4706 167.368 89.1802 167.254 86.7457L165.287 43.2763L164.735 43.0789C162.535 42.2658 160.189 41.9058 157.842 42.021L148.67 42.4157H148.174H148.046V42.5815V43.2921C148.046 43.6947 148.046 44.0816 148.046 44.4921C147.934 49.0176 146.094 53.3341 142.896 56.578C139.698 59.8219 135.377 61.7538 130.798 61.9872C129.186 62.063 127.572 61.9195 126 61.5609L126.152 63.3846C127.711 63.684 129.3 63.8006 130.886 63.732C135.995 63.4836 140.813 61.3111 144.349 57.6616C147.885 54.0121 149.869 49.1633 149.894 44.1131L157.93 43.7579C159.845 43.6828 161.757 43.9503 163.576 44.5474L165.487 86.8404C165.614 89.5879 166.783 92.1876 168.762 94.1229C170.742 96.0581 173.386 97.1871 176.17 97.2854L179.233 165L181 164.858L177.865 95.4932L176.978 95.509Z" fill="#8BD2F0"/>
<path d="M181.325 90.8449C178.743 90.9751 176.211 90.0985 174.258 88.3985C173.317 87.5891 172.551 86.5953 172.007 85.478C171.462 84.3607 171.151 83.1435 171.093 81.9012L169.114 37.3494L168.529 37.1429C166.226 36.3486 159.974 35.9117 157.6 36.015L150.865 36.3247L148.95 36.4042L147.367 36.4757L147.407 37.397C147.452 38.3569 147.415 39.3189 147.296 40.2724C147.101 41.8857 146.68 43.4634 146.046 44.9587C144.717 48.0521 142.6 50.7396 139.908 52.7504C137.215 54.7612 134.042 56.0243 130.709 56.4124C130.202 56.4759 129.688 56.5156 129.166 56.5395C128.109 56.5899 127.05 56.5527 126 56.4283L126.158 58.2949C127.187 58.3922 128.221 58.4161 129.253 58.3663C129.807 58.3663 130.368 58.3028 130.93 58.2313C134.865 57.773 138.589 56.1991 141.665 53.6938C144.742 51.1885 147.043 47.8555 148.301 44.085C148.529 43.3897 148.717 42.6816 148.863 41.9642C148.934 41.6068 148.997 41.2414 149.053 40.8681C149.176 39.9918 149.24 39.1081 149.243 38.2231L150.287 38.1754L157.695 37.8418C160.939 37.7991 164.18 38.0892 167.365 38.7076L169.288 81.9965C169.355 83.4862 169.724 84.9467 170.373 86.288C171.022 87.6294 171.937 88.8233 173.063 89.7965C175.121 91.6001 177.74 92.6281 180.47 92.7036L182.18 165L184 164.849L182.275 91.7266V90.7893L181.325 90.8449Z" fill="#8BD2F0"/>
<path d="M189.05 86.7335C186.49 86.8673 183.977 85.9893 182.039 84.2831C181.106 83.468 180.346 82.4679 179.806 81.3439C179.266 80.2199 178.957 78.9958 178.899 77.7463L176.983 32.9621L176.402 32.7546C174.44 32.0443 162.915 28.8836 160.277 29.0033L150.071 29.4583L150.11 30.3841C150.2 32.3593 149.956 34.3355 149.388 36.2266C148.989 37.5972 148.428 38.9132 147.715 40.1455C146.227 42.707 144.177 44.8855 141.727 46.5119C139.276 48.1383 136.49 49.1689 133.584 49.5237C133.081 49.5876 132.571 49.6275 132.061 49.6594C130.015 49.7366 127.97 49.4888 126 48.9251L126.165 50.8806C128.113 51.3505 130.116 51.5413 132.116 51.4473C132.673 51.4473 133.231 51.3754 133.772 51.3036C138.623 50.714 143.118 48.4152 146.475 44.8067C147.288 43.9385 148.024 42.9982 148.673 41.9972L148.783 41.8216C149.019 41.4544 149.246 41.0793 149.458 40.6962C149.94 39.8293 150.352 38.9244 150.691 37.9905C150.927 37.3808 151.126 36.7571 151.288 36.1228C151.719 34.518 151.938 32.8619 151.939 31.1982L160.34 30.8231C162.349 30.7353 172.116 33.3053 175.201 34.2791L177.109 77.8022C177.178 79.298 177.547 80.7637 178.192 82.1099C178.837 83.4561 179.746 84.6545 180.862 85.632C182.895 87.4358 185.481 88.4681 188.179 88.5532L187.7 165L189.505 164.848L190 87.6354V86.6696L189.05 86.7335Z" fill="#8BD2F0"/>
<path d="M137 107.038L137.55 122.302C137.813 129.529 143.015 135.207 149.182 134.994L156.305 134.743C162.464 134.522 167.253 128.491 166.99 121.264L166.44 106L137 107.038Z" stroke="#8BD2F0" stroke-width="1.82" stroke-miterlimit="10"/>
<g opacity="0.5">
<path opacity="0.5" d="M102 91.3447C101.803 93.4668 100.8 95.4363 99.1925 96.8564C97.5851 98.2766 95.493 99.0419 93.3376 98.9982C91.1822 98.9545 89.1236 98.1051 87.5765 96.6209C86.0294 95.1368 85.1088 93.1283 85 91C90.1604 96.1316 95.871 95.8405 102 91.3447Z" fill="#208CB2"/>
<path opacity="0.5" d="M113 116.967L111.364 198L71 197.203L72.6435 116.042C73.6646 115.815 74.58 115.25 75.2424 114.438C75.9049 113.625 76.2758 112.613 76.2957 111.563L76.5021 91.6715C77.7009 90.9463 79.2968 90.9861 80.7974 91.01L84.3543 91.0817C84.5029 93.2679 85.4619 95.3189 87.0422 96.8307C88.6225 98.3425 90.7095 99.2054 92.8921 99.2494C95.0747 99.2934 97.1945 98.5153 98.834 97.0684C100.474 95.6215 101.514 93.6108 101.75 91.4324L105.839 91.5121C106.86 91.5305 107.867 91.7555 108.8 92.1736L108.395 112.177C108.372 113.421 108.841 114.623 109.7 115.519C110.559 116.416 111.737 116.933 112.976 116.959L113 116.967Z" fill="#27AAE1"/>
<path opacity="0.5" d="M71.6464 179.513L71.4411 189.651L111.809 190.468L112.014 180.33L71.6464 179.513Z" fill="#F1F2F2"/>
</g>
<path d="M176 35L209 34" stroke="#F0A98B" stroke-width="1.11" stroke-miterlimit="10"/>
<path d="M188 88H211" stroke="#F0A98B" stroke-width="1.11" stroke-miterlimit="10"/>
<path d="M201 40L202 165" stroke="#F0A98B" stroke-width="1.11" stroke-miterlimit="10"/>
<path d="M207 40L208 80" stroke="#F0A98B" stroke-width="1.11" stroke-miterlimit="10"/>
<path d="M205 42.8269L209 43L206.323 34L205 42.8269Z" fill="#F0A98B"/>
<path d="M209 78.2283L205 78L207.581 88L209 78.2283Z" fill="#F0A98B"/>
<path d="M200 42.8271L202 43L200.66 34L200 42.8271Z" fill="#F0A98B"/>
<path opacity="0.1" d="M208 419C231.748 419 251 417.433 251 415.5C251 413.567 231.748 412 208 412C184.252 412 165 413.567 165 415.5C165 417.433 184.252 419 208 419Z" fill="black"/>
<path opacity="0.1" d="M529 425C555.51 425 577 423.433 577 421.5C577 419.567 555.51 418 529 418C502.49 418 481 419.567 481 421.5C481 423.433 502.49 425 529 425Z" fill="black"/>
<path opacity="0.1" d="M659 425C685.51 425 707 423.433 707 421.5C707 419.567 685.51 418 659 418C632.49 418 611 419.567 611 421.5C611 423.433 632.49 425 659 425Z" fill="black"/>
<path opacity="0.1" d="M716 424C742.51 424 764 422.433 764 420.5C764 418.567 742.51 417 716 417C689.49 417 668 418.567 668 420.5C668 422.433 689.49 424 716 424Z" fill="black"/>
<path opacity="0.1" d="M844 424C878.794 424 907 422.209 907 420C907 417.791 878.794 416 844 416C809.206 416 781 417.791 781 420C781 422.209 809.206 424 844 424Z" fill="black"/>
<path opacity="0.1" d="M43 419C66.7482 419 86 417.433 86 415.5C86 413.567 66.7482 412 43 412C19.2518 412 0 413.567 0 415.5C0 417.433 19.2518 419 43 419Z" fill="black"/>
<path d="M200.668 201H223.337C223.818 201 224.294 201.093 224.739 201.274C225.183 201.454 225.587 201.719 225.927 202.053C226.267 202.387 226.537 202.784 226.721 203.22C226.905 203.656 227 204.124 227 204.596V208.399C227 209.354 226.614 210.27 225.926 210.945C225.238 211.621 224.305 212 223.332 212H200.668C199.695 212 198.762 211.621 198.074 210.945C197.386 210.27 197 209.354 197 208.399V204.601C197 203.646 197.386 202.73 198.074 202.055C198.762 201.379 199.695 201 200.668 201Z" fill="#BB1F4C"/>
<path d="M223.512 201H213V212H223.512C224.437 212 225.324 211.621 225.978 210.945C226.632 210.27 227 209.354 227 208.399V204.601C227 203.646 226.632 202.73 225.978 202.055C225.324 201.379 224.437 201 223.512 201Z" fill="#FF668E"/>
<path d="M243 230.371C243 229.056 242.184 228 241.182 228H150.927C149.921 228 149.109 229.061 149.109 230.371L147 232.629C147 233.939 147.816 235 148.818 235H241.182C242.188 235 243 233.939 243 232.629V230.371Z" fill="#ADADA5"/>
<path d="M151.538 228C150.543 228 149.74 228.999 149.74 230.232L148 232H238.202C239.197 232 240 231.001 240 229.773V228H151.538Z" fill="white"/>
<path d="M212.775 181.292C176.535 187.03 159.082 213.084 153 228H240.386C240.386 228 241.267 215.862 252 204.273C252 198.56 246.079 192.513 244.101 190.014C234.722 178.258 240.366 176.926 212.775 181.292ZM232.887 207.346C221.385 207.346 193.442 210.124 187.424 204.097C188.553 203.244 196.062 189.686 229.79 187.481C234.274 187.922 233.198 189.22 237.055 195.977C239.855 200.922 244.379 207.346 232.887 207.346Z" fill="#FFD580"/>
<path d="M206.916 216.353C220.98 216.585 227.397 218.152 231 219.541C228.308 214.301 225.772 209.97 205.631 210C185.591 210.03 170.193 217.197 159 226C171.003 218.723 186.833 216.024 206.916 216.353Z" fill="#FFEABF"/>
<path d="M73.7723 409.792C73.4651 410.202 73.2425 410.668 73.1173 411.164C72.9921 411.66 72.9668 412.176 73.0429 412.681C73.1189 413.187 73.2948 413.673 73.5604 414.11C73.826 414.548 74.1761 414.929 74.5904 415.232C75.0025 415.537 75.4713 415.759 75.9698 415.883C76.4684 416.008 76.9867 416.033 77.4951 415.957C78.0034 415.882 78.4917 415.707 78.9318 415.443C79.3718 415.178 79.755 414.83 80.0591 414.418L246.225 251.205C246.532 250.796 246.755 250.331 246.881 249.836C247.007 249.341 247.033 248.826 246.959 248.321C246.884 247.816 246.71 247.331 246.446 246.893C246.182 246.455 245.834 246.074 245.421 245.77C245.01 245.464 244.541 245.242 244.043 245.117C243.544 244.993 243.026 244.967 242.518 245.042C242.009 245.117 241.521 245.292 241.081 245.556C240.641 245.819 240.257 246.167 239.953 246.579L73.7723 409.792Z" fill="#5C5C5C"/>
<path d="M246.223 409.792C246.53 410.201 246.754 410.667 246.88 411.162C247.007 411.657 247.033 412.173 246.959 412.678C246.884 413.184 246.709 413.67 246.445 414.108C246.181 414.546 245.832 414.928 245.419 415.232C245.007 415.537 244.538 415.759 244.04 415.883C243.541 416.008 243.023 416.033 242.515 415.957C242.006 415.882 241.518 415.707 241.078 415.443C240.638 415.178 240.255 414.83 239.951 414.418L73.7723 251.21C73.4651 250.8 73.2425 250.333 73.1173 249.838C72.9921 249.342 72.9668 248.826 73.0429 248.32C73.1189 247.815 73.2948 247.329 73.5604 246.891C73.826 246.454 74.176 246.072 74.5903 245.77C75.0021 245.464 75.4707 245.242 75.969 245.117C76.4673 244.993 76.9855 244.967 77.4939 245.042C78.0022 245.117 78.4905 245.292 78.9307 245.556C79.3709 245.819 79.7543 246.167 80.0588 246.579L246.223 409.792Z" fill="#5C5C5C"/>
<path d="M267 247.502C266.999 250.287 265.899 252.957 263.942 254.926C261.985 256.894 259.331 258 256.564 258H64.4362C63.0657 258 61.7086 257.728 60.4424 257.201C59.1763 256.673 58.0258 255.899 57.0567 254.924C56.0876 253.949 55.3189 252.791 54.7944 251.517C54.2699 250.242 54 248.877 54 247.498C54.0013 244.713 55.1014 242.043 57.0584 240.074C59.0154 238.106 61.6692 237 64.4362 237H256.564C259.331 237 261.985 238.106 263.942 240.074C265.899 242.043 266.999 244.713 267 247.498V247.502Z" fill="#327FA6"/>
<path d="M76 311L189.951 286.757L200 235H76V311Z" fill="#D16984"/>
<path d="M553.714 228C551.819 226.478 568.934 171.979 590 167.297C561.011 149.018 541 176.349 541 176.349L553.714 228Z" fill="#753A8C"/>
<path d="M710 166H702V415H710V166Z" fill="#5C5F66"/>
<path d="M759 412H645V420H759V412Z" fill="#808285"/>
<path d="M726.89 412H645V420H734C731.757 417.229 729.378 414.569 726.89 412Z" fill="#63666E"/>
<path d="M892 156H676V165H892V156Z" fill="#939598"/>
<path d="M746.327 156H676V165H752C750.071 162.021 748.236 158.986 746.327 156Z" fill="#5C5F66"/>
<path d="M690.445 113C690.445 113 692.468 125.607 702 118.89C701.622 131.756 700.207 139.356 687.884 145.362C675.56 151.368 690.445 113 690.445 113Z" fill="#572B22"/>
<path d="M691 72H636V134H691V72Z" fill="#572B22"/>
<path d="M691 60H667V105H691V60Z" fill="#572B22"/>
<path d="M638.013 239.971L639.593 298.242V298.788L639.773 307.254L641.627 397.941C641.627 403.463 642.48 402.99 648 402.99C649.437 403.075 650.853 402.616 651.967 401.704C651.893 381.59 653.853 341.148 655.253 315.12L655.34 313.488C655.34 312.875 655.407 312.282 655.44 311.689C655.473 311.097 655.5 310.517 655.54 309.951C655.707 306.814 655.867 303.957 656.013 301.479L656.053 300.813C656.093 300.147 656.12 299.521 656.16 298.922V298.808C656.447 293.873 656.613 290.949 656.613 290.949L658 239.991C658 237.341 656.946 234.8 655.071 232.926C653.196 231.053 650.652 230 648 230C645.348 230 642.804 231.053 640.929 232.926C639.054 234.8 638 237.341 638 239.991L638.013 239.971Z" fill="#FFB287"/>
<path d="M640 299L640.168 307.304L655.124 315L655.214 313.399L655.311 311.635L655.401 309.93L655.858 301.62L655.89 300.973L655.994 299.111L656 299H640Z" fill="#F48967"/>
<path d="M645.219 402.852L644 412.176C645.904 412.176 650.032 414.94 650.032 416.378V421H654.488L656 405.463V402.845C655.949 401.544 655.36 400.312 654.357 399.409C653.354 398.505 652.014 398 650.62 398C649.227 398 647.887 398.505 646.884 399.409C645.88 400.312 645.291 401.544 645.241 402.845L645.219 402.852Z" fill="#592C23"/>
<path d="M622 416.165L641.503 416.942L642.865 417H642.946L645.479 412.574L645.67 412.237L647.413 409.19L654.986 404.958L655.966 404.913C656.368 393.265 653.093 394.844 650.818 394.844C648.544 394.844 643.083 386.671 642.034 398.034C641.271 406.323 631.595 410.212 626.44 411.713C625.078 412.115 624.002 412.36 623.519 412.432L623.233 412.49L623.192 412.6L622 416.165Z" fill="#158BBD"/>
<path d="M680 79H643V136H680V79Z" fill="#402019"/>
<path d="M621 417C621 419.76 623.845 421.998 627.354 421.998H636.666C638.46 422.037 640.206 421.387 641.577 420.17C642.252 419.542 642.721 418.707 642.919 417.783C642.976 417.524 643.003 417.259 643 416.993C642.986 416.041 642.661 415.124 642.081 414.395C641.8 414.047 641.483 413.734 641.135 413.463C639.822 412.484 638.247 411.972 636.639 412.001H627.354C627.157 412.001 626.958 412.001 626.757 412.001C625.758 412.061 624.779 412.327 623.878 412.785C623.768 412.84 623.66 412.901 623.556 412.968C622.824 413.335 622.199 413.903 621.749 414.613C621.299 415.323 621.04 416.147 621 417Z" fill="#158BBD"/>
<path d="M642 396.287C642 398.913 644.461 401 647.5 401C650.539 401 653 398.886 653 396.287V364.713C653 362.087 650.539 360 647.5 360C644.461 360 642 362.114 642 364.713V396.287Z" fill="#FFB287"/>
<path d="M631.171 409.851C630.595 410.315 631.445 409.562 634.151 409.405C636.618 409.261 640.126 409.845 646.594 404.338C648.773 402.483 648.074 401.326 646.814 400.121C645.56 398.916 643.388 397.259 642.017 398.362L631.171 409.851Z" fill="#FFB287"/>
<path d="M651 399.941L644 406L645.806 398L651 399.941Z" fill="#FFB472"/>
<path d="M684 239.996L682.614 290.948C682.614 290.948 682.234 297.335 681.687 307.198C681.308 314.117 680.841 322.748 680.355 332.084C679.142 356.439 677.895 385.601 677.955 401.717C676.843 402.624 675.429 403.078 673.997 402.989C668.479 402.989 667.759 398.52 667.759 393L666.586 332.71L666.359 324.386L665.919 308.143L665.586 296.023L664 239.989C664 237.34 665.053 234.799 666.928 232.926C668.803 231.052 671.345 230 673.997 230C676.648 230 679.191 231.052 681.065 232.926C682.94 234.799 683.993 237.34 683.993 239.989L684 239.996Z" fill="#FFB287"/>
<path d="M664 265L664.845 307.126L681.064 315L681.155 313.362L681.259 311.557L681.357 309.813L681.853 301.31L681.888 300.648L682 298.743L681.357 265H664Z" fill="#F48967"/>
<path d="M693.807 133.542L691.855 218.278L692.021 220.25L691.808 223.248L689.535 273.877L687.883 304H677.12L672.169 267.283L667.097 304H633.856L630.564 220.25L630.291 217.191L629.391 148.902C629.391 148.487 629.391 148.071 629.391 147.648V146.883L629.431 146.937C629.731 141.819 636.602 129.498 633.09 136.205L624 134.864V114.07C624 114.07 658.834 108.637 668.05 112.226C674.573 114.737 680.825 117.911 686.71 121.697C688.173 122.681 689.515 123.836 690.708 125.138C692.747 127.26 694.223 129.864 695 132.71L693.807 133.542Z" fill="#7F3F98"/>
<path d="M717.377 179.258L717.035 178.479L703.187 147L684.037 158.286L696.855 175.6L665 177.355L665.793 192L711.16 189.507C712.036 189.455 712.897 189.247 713.701 188.891C715.455 188.104 716.827 186.647 717.517 184.841C718.206 183.035 718.156 181.027 717.377 179.258Z" fill="#FFB287"/>
<path d="M694.409 130.211L673.746 142.296L685.034 161.598L705.698 149.514L694.409 130.211Z" fill="#7F3F98"/>
<path d="M678.475 150.461C672.827 164.564 653.005 159.071 648.525 149.27C630.145 150.761 633.102 137.019 633.276 136.4L649.366 116.029C649.366 116.029 658.045 111.618 668.3 112.027C674.835 114.575 681.099 117.795 686.994 121.637C688.46 122.636 689.804 123.808 691 125.129C691 125.129 674.049 130.09 678.475 150.461Z" fill="#954AB3"/>
<path d="M649 121.95C649 121.95 656.042 120.307 657 123C656.262 118.243 656.231 118 656.231 118C656.231 118 649.29 118.871 649 121.95Z" fill="#5E2F70"/>
<path d="M673.854 114C673.854 114 675.816 124.017 665.363 132C663.971 128.876 661.48 124.565 658 124.815C658.926 122.629 673.854 114 673.854 114Z" fill="#5E2F70"/>
<path d="M649 121.108C649 121.108 654.784 116.655 658.942 121.108C658.942 121.108 666.032 121.541 666.753 128C670.688 124.295 673.797 120.216 674 113.573C671.96 111.615 670.083 109.494 668.386 107.232C664.317 106.923 660.231 106.923 656.162 107.232L655.866 107.304C654.168 108.379 649 112.412 649 121.108Z" fill="white"/>
<path d="M656 112.728C656 113.552 656.155 114.367 656.457 115.128C656.758 115.889 657.2 116.581 657.757 117.163C658.315 117.745 658.976 118.207 659.704 118.523C660.432 118.838 661.212 119 662 119C663.591 119 665.117 118.339 666.243 117.163C667.368 115.987 668 114.391 668 112.728V93.2721C668 92.4485 667.845 91.6329 667.543 90.8719C667.242 90.1109 666.8 89.4195 666.243 88.8371C665.685 88.2546 665.024 87.7926 664.296 87.4774C663.568 87.1622 662.788 87 662 87C660.409 87 658.883 87.6608 657.757 88.8371C656.632 90.0133 656 91.6087 656 93.2721V112.728Z" fill="#F48967"/>
<path d="M636 49.9797V81.1451C635.989 86.514 638.021 91.6983 641.706 95.7053C645.391 99.7124 650.47 102.261 655.972 102.863C661.474 103.464 667.011 102.077 671.524 98.9667C676.037 95.8563 679.208 91.2411 680.431 86.0047C680.811 84.4111 681.002 82.7807 681 81.1451V49.9797C681.003 46.7348 680.258 43.5302 678.819 40.6006C677.38 37.6709 675.284 35.0903 672.684 33.0476C670.184 32.0888 667.562 31.4605 664.889 31.1795C663.785 31.0592 662.675 30.9993 661.564 31C650.925 31 642.17 35.5804 637.152 43.0859C636.384 45.3078 635.995 47.6363 636 49.9797Z" fill="#F48967"/>
<path d="M637.138 42.9887C642.094 35.5436 650.741 31 661.25 31C662.347 30.9993 663.443 31.0588 664.534 31.1781C664.96 31.3099 665.373 31.4682 665.787 31.6199C668.355 33.6462 670.425 36.206 671.846 39.1122C673.267 42.0183 674.003 45.1971 674 48.4159V79.3373C674 79.5219 674 79.7131 674 79.8978C673.859 85.5436 671.455 90.9116 667.304 94.8547C663.153 98.7979 657.583 101.003 651.784 101C651.249 101 650.714 101 650.186 100.941C646.004 99.3618 642.411 96.5873 639.879 92.9821C637.347 89.3768 635.995 85.1097 636 80.7419V49.8271C635.995 47.5026 636.379 45.1927 637.138 42.9887Z" fill="#FFB287"/>
<path d="M675 66C675 66 654.124 56.2201 650.509 44.382C649.258 49.6471 640.739 58.8361 637 61.93C637.435 55.6425 643.307 43.7181 643.307 43.7181L665.46 40L673.683 58.285L675 66Z" fill="#F48967"/>
<path d="M638.308 43.0659C643.14 35.5728 651.571 31 661.818 31C665.479 30.9956 669.108 31.6869 672.514 33.0375C677.963 35.1954 682.64 38.9516 685.937 43.8176C689.234 48.6837 690.998 54.4344 691 60.3218C691 71.3125 688.841 80.8962 679.994 85.9071L679.822 86C679.822 86 674.891 77.4119 675.92 64.2376C675.92 64.0916 675.92 63.9522 675.92 63.8062C668.658 60.4479 653.367 52.4837 650.627 43.5438C649.366 48.8068 641.609 56.2999 637.859 59.3927C637.538 60.9875 637.376 62.6105 637.377 64.2376V72.2019C637.311 72.109 637.251 72.0094 637.192 71.9099C634.366 67.4565 634.003 64.2708 634.003 58.4834C633.925 53.034 635.42 47.6787 638.308 43.0659Z" fill="#572B22"/>
<path d="M660.5 72C661.881 72 663 70.8807 663 69.5C663 68.1193 661.881 67 660.5 67C659.119 67 658 68.1193 658 69.5C658 70.8807 659.119 72 660.5 72Z" fill="#47231C"/>
<path d="M644.5 72C645.881 72 647 70.8807 647 69.5C647 68.1193 645.881 67 644.5 67C643.119 67 642 68.1193 642 69.5C642 70.8807 643.119 72 644.5 72Z" fill="#47231C"/>
<path d="M667 65C667 65 662.467 61.8005 658 63.495" stroke="#572B22" stroke-width="2" stroke-miterlimit="10" stroke-linecap="round"/>
<path d="M640 65C640.955 63.9477 642.124 63.2771 643.367 63.0691C644.609 62.8612 645.871 63.1248 647 63.8281" stroke="#572B22" stroke-width="2" stroke-miterlimit="10" stroke-linecap="round"/>
<path d="M644.358 83.1179C644.609 83.2607 644.851 83.418 645.084 83.5889L645.461 83.8539L645.86 84.0305C646.136 84.1556 646.382 84.2955 646.745 84.4353L647.246 84.6708L647.797 84.8622C647.976 84.9467 648.163 85.0108 648.355 85.0535L648.929 85.2375C649.335 85.3037 649.719 85.4436 650.147 85.4877C650.575 85.5319 650.982 85.5908 651.395 85.6644C651.809 85.738 652.244 85.7159 652.665 85.6644C653.086 85.6128 653.492 85.5908 653.913 85.5908C654.333 85.5908 654.732 85.4877 655.095 85.3626L655.668 85.2375C655.842 85.1786 656.017 85.1124 656.198 85.0609C656.527 84.9648 656.849 84.8468 657.163 84.7076L657.591 84.5457L657.939 84.369C658.374 84.1556 658.665 84.0379 658.665 84.0379L658.802 83.9863C658.91 83.9436 659.025 83.9227 659.14 83.9251C659.256 83.9275 659.37 83.953 659.476 84.0002C659.582 84.0474 659.677 84.1153 659.757 84.2001C659.837 84.2849 659.9 84.3848 659.941 84.4942C660.004 84.6583 660.017 84.8378 659.978 85.0093C659.901 85.3197 659.804 85.6245 659.687 85.9219L659.499 86.4003C659.419 86.5696 659.31 86.7389 659.201 86.9229C658.96 87.3499 658.667 87.7453 658.331 88.1004C658.149 88.3065 657.954 88.5052 657.743 88.7113C657.533 88.9173 657.279 89.0793 657.018 89.2706C656.766 89.4732 656.493 89.6484 656.205 89.7932C655.915 89.9551 655.61 90.1096 655.298 90.2568C654.641 90.5241 653.958 90.7214 653.26 90.8456C652.541 90.9706 651.812 91.0199 651.083 90.9928C649.634 90.9003 648.222 90.4937 646.941 89.8005C646.367 89.4631 645.83 89.066 645.337 88.6156L644.692 87.9679L644.177 87.2761C643.887 86.858 643.644 86.4088 643.451 85.9367C643.364 85.7232 643.27 85.5319 643.212 85.3479L643.125 84.8916C643.067 84.5974 643.026 84.3001 643.001 84.0011C642.995 83.8763 643.012 83.7515 643.053 83.6336C643.094 83.5158 643.157 83.4072 643.239 83.3143C643.321 83.2213 643.421 83.1457 643.532 83.0918C643.643 83.0379 643.764 83.0067 643.887 83.0001C644.051 82.9973 644.214 83.0379 644.358 83.1179Z" fill="white"/>
<path d="M648.398 76C649.294 76.7368 650.383 77.1351 651.503 77.1351C652.623 77.1351 653.712 76.7368 654.608 76C654.847 76.2417 654.987 76.5773 655 76.9329C655 78.0738 653.434 79 651.5 79C649.566 79 648 78.0738 648 76.9329C648.017 76.5772 648.16 76.2428 648.398 76Z" fill="#F48967"/>
<path d="M671.413 402.839L671 413.667C672.871 413.667 674.573 414.94 674.573 416.378L675.358 421H679.737L682 405.463V402.845C681.95 401.544 681.371 400.312 680.385 399.409C679.4 398.505 678.083 398 676.714 398C675.344 398 674.028 398.505 673.042 399.409C672.056 400.312 671.477 401.544 671.427 402.845L671.413 402.839Z" fill="#592C23"/>
<path d="M668.001 416.23V420C668.517 419.399 668.876 418.6 669.028 417.716H669.089L671 413.095C670.815 413.033 670.626 413.001 670.435 413C670.114 412.999 669.795 413.081 669.498 413.242C669.201 413.404 668.932 413.64 668.704 413.939C668.584 414.094 668.477 414.267 668.386 414.453C668.124 414.98 667.99 415.6 668.001 416.23Z" fill="#E2D6A1"/>
<path d="M648 416.165L667.468 416.942L668.827 417H668.909L671.437 412.574L671.628 412.237L673.368 409.19L680.988 404.958L681.966 404.913C682.367 393.265 679.098 394.844 676.828 394.844C674.557 394.844 669.106 386.671 668.059 398.034C667.298 406.323 657.639 410.212 652.493 411.713C651.134 412.115 650.06 412.36 649.577 412.432L649.291 412.49L649.251 412.6L648 416.165Z" fill="#158BBD"/>
<path d="M647 417C647 419.76 649.844 421.998 653.352 421.998H662.668C664.461 422.037 666.207 421.387 667.578 420.17C668.252 419.542 668.721 418.707 668.919 417.783C668.976 417.524 669.003 417.259 669 416.993C668.985 416.041 668.661 415.124 668.081 414.395C667.801 414.047 667.483 413.734 667.135 413.463C665.823 412.484 664.249 411.972 662.641 412.001H653.352C653.155 412.001 652.956 412.001 652.755 412.001C651.756 412.061 650.778 412.327 649.877 412.785C649.767 412.84 649.659 412.901 649.555 412.968C648.823 413.335 648.199 413.903 647.749 414.613C647.299 415.323 647.04 416.147 647 417Z" fill="#158BBD"/>
<path d="M666.024 277.576V186H648V279.629H660.87V304H670V277.576H666.024Z" fill="#5E2F70"/>
<path d="M668 396.287C668 398.913 670.238 401 673 401C675.762 401 678 398.886 678 396.287V364.713C678 362.087 675.762 360 673 360C670.238 360 668 362.114 668 364.713V396.287Z" fill="#FFB287"/>
<path d="M657.171 409.851C656.595 410.315 657.445 409.562 660.151 409.405C662.618 409.261 666.126 409.845 672.594 404.338C674.773 402.483 674.074 401.326 672.814 400.121C671.56 398.916 669.388 397.259 668.017 398.362L657.171 409.851Z" fill="#FFB287"/>
<path d="M677 399.941L670 406L671.806 398L677 399.941Z" fill="#FFB472"/>
<path d="M665 117.735L657.612 126C657.612 126 655.704 116.954 656.04 113.619C656.304 110.959 665 117.735 665 117.735Z" fill="#FFB287"/>
<path d="M682 307C681.639 313.951 681.195 322.621 680.732 332L667.418 324.273L667 307.957L682 307Z" fill="#F48967"/>
<path d="M680.743 103L672 101.365C675.657 96.9347 677.373 89.6696 677.599 80.2399L681 79L680.743 103Z" fill="#402019"/>
<path d="M696 174H664V316H696V174Z" fill="#F0FFFF"/>
<path d="M674 79.4653C674.775 79.8017 675.621 79.9749 676.478 79.9725C677.302 80.0493 678.135 79.9649 678.922 79.7248C679.709 79.4847 680.434 79.0943 681.048 78.5787C681.663 78.0631 682.154 77.4337 682.49 76.7312C682.826 76.0287 683 75.2686 683 74.5C683 73.7314 682.826 72.9713 682.49 72.2688C682.154 71.5663 681.663 70.9369 681.048 70.4213C680.434 69.9057 679.709 69.5153 678.922 69.2752C678.135 69.0351 677.302 68.9507 676.478 69.0275C675.624 69.025 674.78 69.1982 674.007 69.5347V78.9397C674.007 79.1108 674.007 79.2942 674 79.4653Z" fill="#F48967"/>
<path d="M558.555 154L537 144.787L549.697 126L569 134.31L558.555 154Z" fill="#FFB287"/>
<path d="M559.778 231.767C560.935 233.888 561.015 236.396 561.015 238.85L560.842 239.097C560.777 240.434 560.445 241.744 559.866 242.951C559.287 244.157 558.472 245.234 557.47 246.119C555.368 247.989 552.651 249.015 549.84 249H502.228C499.721 249.012 497.297 248.1 495.416 246.439C493.839 245.045 492.799 243.141 492.476 241.057L493.321 231.761C494.752 227.325 495.905 222.803 496.773 218.223C497.248 215.662 497.614 213.112 497.871 210.574C498.466 204.879 498.366 199.132 497.571 193.461C497.21 190.986 496.693 188.535 496.022 186.126C495.829 185.459 495.622 184.745 495.396 184.058C495.064 183.011 494.731 181.964 494.299 180.93L479 175.309L479.273 174.642L489.097 151.247C489.303 150.42 491.04 144.525 498.303 139.957C499.52 139.197 501.15 138.25 503.099 137.209C505.048 136.169 507.336 135.035 509.85 133.875C510.857 133.353 511.796 132.708 512.644 131.954C514.938 129.895 517.06 127.651 518.99 125.245C523.589 124.918 528.206 124.918 532.805 125.245L533.138 125.319C533.748 125.464 534.35 125.642 534.94 125.852C540.448 124.959 545.862 124.785 550.678 125.852C550.718 125.952 550.738 126.052 550.765 126.152L550.811 125.919L550.858 125.705V125.946L552.481 145.685L554.197 146.352C555.7 148.96 557.044 151.434 558.188 153.775C563.396 164.632 564.022 172.881 555.275 180.57L554.995 183.371C552.88 190.82 552.335 200.797 553.512 210.507C553.821 213.078 554.265 215.632 554.842 218.156C555.865 222.896 557.525 227.475 559.778 231.767Z" fill="#FFD470"/>
<path d="M559.726 231.735C560.907 233.859 560.988 236.372 560.988 238.83L560.812 239.078C560.746 240.417 560.407 241.73 559.816 242.939C559.225 244.148 558.394 245.227 557.371 246.113C555.227 247.987 552.455 249.015 549.588 249H501.27V220.376H495C495.156 219.641 495.312 218.906 495.448 218.171C495.765 216.496 496.031 214.826 496.249 213.16L530.179 213.34L532.215 125.845C537.834 124.95 545.536 124.596 550.449 125.638C550.49 125.738 550.51 125.838 550.538 125.939L550.585 125.705L550.633 125.491V125.732L552.288 145.509L554.039 146.177C555.573 148.79 556.944 151.268 558.111 153.614C563.424 164.491 564.062 172.756 555.139 180.46L554.854 183.267C552.696 190.73 552.139 200.725 553.34 210.454C553.656 213.03 554.109 215.588 554.698 218.118C555.741 222.86 557.432 227.44 559.726 231.735Z" fill="#D69D38"/>
<path d="M533 249H524V416H533V249Z" fill="#808285"/>
<path d="M533 312.003V249H524V323C526.363 318.983 529.395 315.279 533 312.003Z" fill="#5C5F66"/>
<path d="M566 413H492V421H566V413Z" fill="#808285"/>
<path d="M851 165H843V415H851V165Z" fill="#808285"/>
<path d="M900 410H786V419H900V410Z" fill="#808285"/>
<path d="M528 211H519V287H528V211Z" fill="#1A8AA8"/>
<path d="M553.649 211H497.114C496.858 213.65 496.486 216.317 496 219H555L553.649 211Z" fill="#27AAE1"/>
<path d="M519 211H505V305H519V211Z" fill="#27AAE1"/>
<path d="M590 167.411C581.747 171.246 574.345 176.757 568.241 183.607C566.101 185.97 564.1 188.461 562.249 191.067C560.157 194.002 558.229 197.056 556.474 200.213C553.862 204.923 551.58 209.817 549.646 214.857C546.474 222.926 544.165 231.322 542.76 239.898C542.76 239.898 532.499 240.073 532.499 239.965L532.558 131.046C532.551 129.709 532.274 128.387 531.743 127.164C531.212 125.942 530.439 124.845 529.473 123.942C528.466 122.985 527.286 122.236 526 121.738C528.32 120.842 530.865 120.759 533.235 121.503C533.235 121.503 553.336 122.847 571.353 134.534L571.78 134.816C575.683 137.663 579.043 141.216 581.692 145.3C586.078 151.926 588.919 159.489 590 167.411Z" fill="#954AB3"/>
<path d="M533 134.924C533 136.535 532.315 138.081 531.096 139.22C529.877 140.36 528.224 141 526.5 141C524.776 141 523.123 140.36 521.904 139.22C520.685 138.081 520 136.535 520 134.924V116.076C520 114.465 520.685 112.919 521.904 111.78C523.123 110.64 524.776 110 526.5 110C528.224 110 529.877 110.64 531.096 111.78C532.315 112.919 533 114.465 533 116.076V134.924Z" fill="#808285"/>
<path d="M667.5 185C668.881 185 670 183.881 670 182.5C670 181.119 668.881 180 667.5 180C666.119 180 665 181.119 665 182.5C665 183.881 666.119 185 667.5 185Z" fill="#BE1E2D"/>
<path d="M667.5 198C668.881 198 670 196.881 670 195.5C670 194.119 668.881 193 667.5 193C666.119 193 665 194.119 665 195.5C665 196.881 666.119 198 667.5 198Z" fill="#BE1E2D"/>
<path d="M667.5 211C668.881 211 670 209.881 670 208.5C670 207.119 668.881 206 667.5 206C666.119 206 665 207.119 665 208.5C665 209.881 666.119 211 667.5 211Z" fill="#BE1E2D"/>
<path d="M667.5 225C668.881 225 670 223.881 670 222.5C670 221.119 668.881 220 667.5 220C666.119 220 665 221.119 665 222.5C665 223.881 666.119 225 667.5 225Z" fill="#BE1E2D"/>
<path d="M667.5 238C668.881 238 670 236.881 670 235.5C670 234.119 668.881 233 667.5 233C666.119 233 665 234.119 665 235.5C665 236.881 666.119 238 667.5 238Z" fill="#BE1E2D"/>
<path d="M667.5 251C668.881 251 670 249.881 670 248.5C670 247.119 668.881 246 667.5 246C666.119 246 665 247.119 665 248.5C665 249.881 666.119 251 667.5 251Z" fill="#BE1E2D"/>
<path d="M667.5 264C668.881 264 670 262.881 670 261.5C670 260.119 668.881 259 667.5 259C666.119 259 665 260.119 665 261.5C665 262.881 666.119 264 667.5 264Z" fill="#BE1E2D"/>
<path d="M667.5 278C668.881 278 670 276.881 670 275.5C670 274.119 668.881 273 667.5 273C666.119 273 665 274.119 665 275.5C665 276.881 666.119 278 667.5 278Z" fill="#BE1E2D"/>
<path d="M667.5 291C668.881 291 670 289.881 670 288.5C670 287.119 668.881 286 667.5 286C666.119 286 665 287.119 665 288.5C665 289.881 666.119 291 667.5 291Z" fill="#BE1E2D"/>
<path d="M667.5 304C668.881 304 670 302.881 670 301.5C670 300.119 668.881 299 667.5 299C666.119 299 665 300.119 665 301.5C665 302.881 666.119 304 667.5 304Z" fill="#BE1E2D"/>
<path d="M678 175.189C677.999 175.61 677.932 176.025 677.802 176.405C677.672 176.784 677.484 177.118 677.251 177.381C677.017 177.645 676.745 177.831 676.454 177.927C676.163 178.022 675.86 178.024 675.568 177.934C675.276 177.843 675.002 177.661 674.767 177.401C674.532 177.141 674.34 176.811 674.208 176.433C674.075 176.056 674.004 175.641 674 175.22C673.996 174.799 674.059 174.382 674.185 174H677.815C677.935 174.373 677.998 174.779 678 175.189Z" fill="#BE1E2D"/>
<path d="M676 191C677.105 191 678 189.881 678 188.5C678 187.119 677.105 186 676 186C674.895 186 674 187.119 674 188.5C674 189.881 674.895 191 676 191Z" fill="#BE1E2D"/>
<path d="M676 205C677.105 205 678 203.881 678 202.5C678 201.119 677.105 200 676 200C674.895 200 674 201.119 674 202.5C674 203.881 674.895 205 676 205Z" fill="#BE1E2D"/>
<path d="M676 218C677.105 218 678 216.881 678 215.5C678 214.119 677.105 213 676 213C674.895 213 674 214.119 674 215.5C674 216.881 674.895 218 676 218Z" fill="#BE1E2D"/>
<path d="M676 231C677.105 231 678 229.881 678 228.5C678 227.119 677.105 226 676 226C674.895 226 674 227.119 674 228.5C674 229.881 674.895 231 676 231Z" fill="#BE1E2D"/>
<path d="M676 244C677.105 244 678 243.105 678 242C678 240.895 677.105 240 676 240C674.895 240 674 240.895 674 242C674 243.105 674.895 244 676 244Z" fill="#BE1E2D"/>
<path d="M676 258C677.105 258 678 256.881 678 255.5C678 254.119 677.105 253 676 253C674.895 253 674 254.119 674 255.5C674 256.881 674.895 258 676 258Z" fill="#BE1E2D"/>
<path d="M676 271C677.105 271 678 269.881 678 268.5C678 267.119 677.105 266 676 266C674.895 266 674 267.119 674 268.5C674 269.881 674.895 271 676 271Z" fill="#BE1E2D"/>
<path d="M676 284C677.105 284 678 282.881 678 281.5C678 280.119 677.105 279 676 279C674.895 279 674 280.119 674 281.5C674 282.881 674.895 284 676 284Z" fill="#BE1E2D"/>
<path d="M676 298C677.105 298 678 296.881 678 295.5C678 294.119 677.105 293 676 293C674.895 293 674 294.119 674 295.5C674 296.881 674.895 298 676 298Z" fill="#BE1E2D"/>
<path d="M676 311C677.105 311 678 309.881 678 308.5C678 307.119 677.105 306 676 306C674.895 306 674 307.119 674 308.5C674 309.881 674.895 311 676 311Z" fill="#BE1E2D"/>
<path d="M684.5 185C685.881 185 687 183.881 687 182.5C687 181.119 685.881 180 684.5 180C683.119 180 682 181.119 682 182.5C682 183.881 683.119 185 684.5 185Z" fill="#BE1E2D"/>
<path d="M684.5 198C685.881 198 687 196.881 687 195.5C687 194.119 685.881 193 684.5 193C683.119 193 682 194.119 682 195.5C682 196.881 683.119 198 684.5 198Z" fill="#BE1E2D"/>
<path d="M684.5 211C685.881 211 687 209.881 687 208.5C687 207.119 685.881 206 684.5 206C683.119 206 682 207.119 682 208.5C682 209.881 683.119 211 684.5 211Z" fill="#BE1E2D"/>
<path d="M684.5 225C685.881 225 687 223.881 687 222.5C687 221.119 685.881 220 684.5 220C683.119 220 682 221.119 682 222.5C682 223.881 683.119 225 684.5 225Z" fill="#BE1E2D"/>
<path d="M684.5 238C685.881 238 687 236.881 687 235.5C687 234.119 685.881 233 684.5 233C683.119 233 682 234.119 682 235.5C682 236.881 683.119 238 684.5 238Z" fill="#BE1E2D"/>
<path d="M684.5 251C685.881 251 687 249.881 687 248.5C687 247.119 685.881 246 684.5 246C683.119 246 682 247.119 682 248.5C682 249.881 683.119 251 684.5 251Z" fill="#BE1E2D"/>
<path d="M684.5 264C685.881 264 687 262.881 687 261.5C687 260.119 685.881 259 684.5 259C683.119 259 682 260.119 682 261.5C682 262.881 683.119 264 684.5 264Z" fill="#BE1E2D"/>
<path d="M684.5 278C685.881 278 687 276.881 687 275.5C687 274.119 685.881 273 684.5 273C683.119 273 682 274.119 682 275.5C682 276.881 683.119 278 684.5 278Z" fill="#BE1E2D"/>
<path d="M684.5 291C685.881 291 687 289.881 687 288.5C687 287.119 685.881 286 684.5 286C683.119 286 682 287.119 682 288.5C682 289.881 683.119 291 684.5 291Z" fill="#BE1E2D"/>
<path d="M684.5 304C685.881 304 687 302.881 687 301.5C687 300.119 685.881 299 684.5 299C683.119 299 682 300.119 682 301.5C682 302.881 683.119 304 684.5 304Z" fill="#BE1E2D"/>
<path d="M694 175.176C694.004 175.596 693.923 176.013 693.763 176.393C693.603 176.774 693.368 177.11 693.076 177.375C692.784 177.64 692.441 177.828 692.075 177.925C691.709 178.022 691.328 178.025 690.96 177.934C690.592 177.843 690.248 177.661 689.952 177.4C689.657 177.14 689.418 176.808 689.253 176.43C689.088 176.052 689.001 175.637 689 175.216C688.999 174.795 689.082 174.38 689.245 174H693.769C693.919 174.369 693.998 174.77 694 175.176Z" fill="#BE1E2D"/>
<path d="M691.5 191C692.881 191 694 189.881 694 188.5C694 187.119 692.881 186 691.5 186C690.119 186 689 187.119 689 188.5C689 189.881 690.119 191 691.5 191Z" fill="#BE1E2D"/>
<path d="M691.5 205C692.881 205 694 203.881 694 202.5C694 201.119 692.881 200 691.5 200C690.119 200 689 201.119 689 202.5C689 203.881 690.119 205 691.5 205Z" fill="#BE1E2D"/>
<path d="M691.5 218C692.881 218 694 216.881 694 215.5C694 214.119 692.881 213 691.5 213C690.119 213 689 214.119 689 215.5C689 216.881 690.119 218 691.5 218Z" fill="#BE1E2D"/>
<path d="M691.5 231C692.881 231 694 229.881 694 228.5C694 227.119 692.881 226 691.5 226C690.119 226 689 227.119 689 228.5C689 229.881 690.119 231 691.5 231Z" fill="#BE1E2D"/>
<path d="M691.5 244C692.881 244 694 243.105 694 242C694 240.895 692.881 240 691.5 240C690.119 240 689 240.895 689 242C689 243.105 690.119 244 691.5 244Z" fill="#BE1E2D"/>
<path d="M691.5 258C692.881 258 694 256.881 694 255.5C694 254.119 692.881 253 691.5 253C690.119 253 689 254.119 689 255.5C689 256.881 690.119 258 691.5 258Z" fill="#BE1E2D"/>
<path d="M691.5 271C692.881 271 694 269.881 694 268.5C694 267.119 692.881 266 691.5 266C690.119 266 689 267.119 689 268.5C689 269.881 690.119 271 691.5 271Z" fill="#BE1E2D"/>
<path d="M691.5 284C692.881 284 694 282.881 694 281.5C694 280.119 692.881 279 691.5 279C690.119 279 689 280.119 689 281.5C689 282.881 690.119 284 691.5 284Z" fill="#BE1E2D"/>
<path d="M691.5 298C692.881 298 694 296.881 694 295.5C694 294.119 692.881 293 691.5 293C690.119 293 689 294.119 689 295.5C689 296.881 690.119 298 691.5 298Z" fill="#BE1E2D"/>
<path d="M691.5 311C692.881 311 694 309.881 694 308.5C694 307.119 692.881 306 691.5 306C690.119 306 689 307.119 689 308.5C689 309.881 690.119 311 691.5 311Z" fill="#BE1E2D"/>
<path d="M664 174H651V274H664V174Z" fill="#F26522"/>
<path d="M664 175V177.435L651 185V182.58L664 175Z" fill="#F9ED32"/>
<path d="M664 184V186.185L651 193V190.809L664 184Z" fill="#F9ED32"/>
<path d="M664 192V194.194L651 201V198.812L664 192Z" fill="#F9ED32"/>
<path d="M664 200V202.426L651 210V207.567L664 200Z" fill="#F9ED32"/>
<path d="M664 208V210.436L651 218V215.571L664 208Z" fill="#F9ED32"/>
<path d="M664 217V219.182L651 226V223.812L664 217Z" fill="#F9ED32"/>
<path d="M664 225V227.186L651 234V231.814L664 225Z" fill="#F9ED32"/>
<path d="M664 232V234.19L651 241V238.81L664 232Z" fill="#F9ED32"/>
<path d="M664 240V242.183L651 249V246.817L664 240Z" fill="#F9ED32"/>
<path d="M664 248V250.435L651 258V255.565L664 248Z" fill="#F9ED32"/>
<path d="M664 257V259.19L651 266V263.81L664 257Z" fill="#F9ED32"/>
<path d="M664 265V267.223L651.258 274H651V271.913L664 265Z" fill="#F9ED32"/>
<path d="M839 174C839 180.486 834.846 205 828.764 205C822.682 205 817 180.486 817 174C823.753 181.008 831.144 180.445 839 174Z" fill="#C13B25"/>
<path d="M853 249H844V264H853V249Z" fill="#C2501B"/>
<path d="M802 186C802 183.613 803.056 181.324 804.935 179.636C806.815 177.948 809.364 177 812.022 177H842.978C845.636 177 848.185 177.948 850.065 179.636C851.944 181.324 853 183.613 853 186" stroke="#3F3F3F" stroke-width="5" stroke-miterlimit="10" stroke-linecap="round"/>
<path d="M822 154C823.857 154 825.637 154.662 826.95 155.84C828.262 157.019 829 158.617 829 160.283V174" stroke="#3F3F3F" stroke-width="5" stroke-miterlimit="10"/>
<path d="M850.605 202.292C851.755 203.44 853.314 204.086 854.94 204.085V267H852.933L849.166 253.614L845.4 267H802V206.89C803.335 206.568 804.523 205.806 805.373 204.727C806.222 203.647 806.684 202.313 806.683 200.94L806.456 177.594V174.971C808.008 173.987 810.102 174 812.075 174H816.759C816.759 174.635 816.81 175.268 816.913 175.894C817.256 177.931 818.144 179.837 819.484 181.409C820.823 182.981 822.563 184.161 824.519 184.823C825.53 188.062 829.437 200.217 829.437 200.638C829.604 200.29 832.22 188.591 833.136 184.307C834.786 183.513 836.221 182.335 837.322 180.871C838.422 179.407 839.155 177.7 839.459 175.894C839.561 175.268 839.612 174.634 839.612 174H844.965C846.35 174 853.802 174.281 855 174.79L852.752 183.27L848.832 197.941C848.826 198.747 848.98 199.547 849.284 200.293C849.588 201.04 850.037 201.719 850.605 202.292Z" fill="#EF4B25"/>
<path d="M839.912 174.007H838.633C838.632 174.607 838.583 175.206 838.488 175.798C838.203 177.509 837.519 179.125 836.493 180.511C835.468 181.897 834.13 183.013 832.592 183.766L832.301 183.907L832.235 184.23C830.857 190.756 829.777 195.78 829.168 198.555C828.506 196.339 827.307 192.265 824.982 184.688L824.882 184.358L824.565 184.25C822.74 183.629 821.116 182.513 819.867 181.024C818.619 179.535 817.792 177.729 817.477 175.798C817.381 175.204 817.332 174.602 817.331 174H816C816 174.444 816.099 174.222 816.053 174.673C816.078 175.125 816.126 175.574 816.199 176.02C816.538 178.14 817.425 180.13 818.77 181.787C820.114 183.444 821.867 184.708 823.849 185.449C825.883 192.07 828.055 199.269 828.486 201H829.983C830.261 199.869 831.043 196.333 833.467 184.836C835.123 183.968 836.557 182.719 837.657 181.188C838.756 179.658 839.489 177.889 839.799 176.02C839.869 175.574 839.915 175.125 839.938 174.673H839.985C840.044 174.229 839.912 174.451 839.912 174.007Z" fill="white"/>
<path d="M817.997 205V183.758C818.03 182.489 817.81 181.226 817.347 180.043C816.885 178.861 816.191 177.783 815.306 176.874C814.421 175.964 813.362 175.241 812.194 174.748C811.025 174.254 809.769 174 808.5 174C807.231 174 805.975 174.254 804.806 174.748C803.637 175.241 802.579 175.964 801.694 176.874C800.809 177.783 800.115 178.861 799.653 180.043C799.19 181.226 798.97 182.489 799.003 183.758V204.993L817.997 205Z" fill="#F26522"/>
<path d="M743 195C743 192.613 744.035 190.324 745.878 188.636C747.72 186.948 750.219 186 752.824 186H783.176C785.781 186 788.28 186.948 790.122 188.636C791.965 190.324 793 192.613 793 195" stroke="#3F3F3F" stroke-width="5" stroke-miterlimit="10" stroke-linecap="round"/>
<path d="M813 179C813 182.183 811.788 185.235 809.632 187.485C807.475 189.736 804.55 191 801.5 191C798.45 191 795.525 189.736 793.368 187.485C791.212 185.235 790 182.183 790 179C797.076 186.166 804.792 185.59 813 179Z" fill="#208CB2"/>
<path d="M825.828 205.969L825.781 191.094C824.769 188.44 824.829 186.151 822.179 184.121C821.294 183.458 819.764 185.766 818.778 185.189C818.456 187.67 818.181 190.158 818.107 192.666C817.866 199.606 818.107 206.546 818.107 213.486C818.107 227.305 818.745 241.105 819.389 254.905C819.576 258.939 819.755 262.971 819.925 267H832V212.046C830.37 212.046 828.806 211.406 827.653 210.266C826.499 209.127 825.85 207.581 825.849 205.969H825.828Z" fill="#C13B25"/>
<path d="M582 146.237C569.36 146.618 558.176 160.342 558.176 160.342L557.971 161C553.78 152.125 564.055 141.993 571.698 136C575.752 138.779 579.244 142.248 582 146.237Z" fill="#7F3F98"/>
<path d="M776 191C776 188.348 777.035 185.804 778.878 183.929C780.721 182.054 783.22 181 785.826 181H816.174C818.78 181 821.279 182.054 823.122 183.929C824.965 185.804 826 188.348 826 191" stroke="#3F3F3F" stroke-width="5" stroke-miterlimit="10" stroke-linecap="round"/>
<path d="M796 154C797.591 154 799.117 154.674 800.243 155.873C801.368 157.072 802 158.699 802 160.395V179" stroke="#3F3F3F" stroke-width="5" stroke-miterlimit="10"/>
<path d="M763 154C764.591 154 766.117 154.697 767.243 155.938C768.368 157.179 769 158.863 769 160.618V185" stroke="#3F3F3F" stroke-width="5" stroke-miterlimit="10"/>
<path d="M829 212.068V318H776V211.888C777.336 211.566 778.525 210.804 779.376 209.725C780.226 208.646 780.688 207.312 780.687 205.938L780.419 179.977C781.973 178.993 784.069 179 786.038 179H790.725C790.725 182.032 791.93 184.939 794.075 187.083C796.22 189.227 799.129 190.431 802.162 190.431C805.195 190.431 808.104 189.227 810.249 187.083C812.394 184.939 813.599 182.032 813.599 179H818.956C820.297 178.998 821.625 179.266 822.86 179.79V205.938C822.861 207.565 823.509 209.124 824.66 210.273C825.812 211.423 827.373 212.068 829 212.068Z" fill="#36CBFF"/>
<path d="M829 295H776V308H829V295Z" fill="white"/>
<path d="M675.726 64.7142C675.536 64.8972 675.279 65 675.011 65C674.743 65 674.485 64.8972 674.295 64.7142C674.106 64.5305 674 64.2818 674 64.0225C674 63.7632 674.106 63.5145 674.295 63.3308L681.274 56.2858C681.464 56.1028 681.721 56 681.989 56C682.257 56 682.515 56.1028 682.705 56.2858C682.894 56.4695 683 56.7182 683 56.9775C683 57.2368 682.894 57.4855 682.705 57.6692L675.726 64.7142Z" fill="#F9CB32"/>
<path d="M682 58L675.084 67L675 64.0386L682 58Z" fill="#402019"/>
<path d="M678 150L694 170.817L693.779 174H686.425L678 150Z" fill="#5E2F70"/>
<path d="M705 152.071C705 152.071 691.555 160.219 690.428 166L687 161.387L704.449 151L705 152.071Z" fill="#F48967"/>
<path d="M696 175L700 189.827L696 190V175Z" fill="#F48967"/>
<g style="mix-blend-mode:multiply" opacity="0.42">
<path d="M803 318L805.2 261L810 318H803Z" fill="#B4BEC1"/>
</g>
<g style="mix-blend-mode:multiply" opacity="0.42">
<path d="M816 318L818.208 279L821 318H816Z" fill="#B4BEC1"/>
</g>
<path d="M642 185.68C641.999 186.511 642.192 187.331 642.56 188.07C642.929 188.809 643.464 189.447 644.12 189.93L651 195V174H647.028C645.695 174 644.416 174.546 643.473 175.518C642.53 176.491 642 177.809 642 179.184V185.68Z" fill="#FFB287"/>
<path d="M624 114V131.106C622.109 131.072 619.818 131.072 617.239 131.146C615.328 131.2 613.23 131.301 611.059 131.463C608.887 131.624 606.556 131.84 604.191 132.136C603.001 132.264 601.812 132.472 600.59 132.634C599.367 132.795 598.158 133.031 596.935 133.259C594.49 133.737 592.011 134.249 589.586 134.915C587.161 135.581 584.782 136.308 582.477 137.115C581.328 137.526 580.226 137.99 579.137 138.414C578.048 138.838 576.979 139.35 575.95 139.848C574.921 140.345 573.905 140.843 572.97 141.389L571.567 142.196C571.106 142.459 570.652 142.721 570.231 143.01L568.941 143.845C568.521 144.114 568.106 144.39 567.732 144.686C566.977 145.271 566.202 145.796 565.527 146.368L563.597 148.024L561.98 149.625C561.505 150.089 561.059 150.581 560.644 151.099L559.541 152.378C558.92 153.185 558.466 153.845 558.131 154.282C558.265 154.376 557.283 155.628 557.256 155.978L556.461 163.717C556.465 163.775 556.465 163.833 556.461 163.892C556.448 164.111 556.386 164.325 556.281 164.517L553.682 169.322C553.587 169.499 553.458 169.656 553.302 169.783C553.147 169.91 552.968 170.004 552.776 170.061C552.584 170.118 552.383 170.136 552.184 170.114C551.985 170.093 551.793 170.032 551.617 169.935C549.059 168.528 553.869 165.352 552.419 163.205C551.898 162.438 551.638 163.124 551.27 163.656L550.081 165.406L545.651 171.913C544.983 172.869 543.934 173.259 543.273 172.821C542.611 172.384 542.605 171.213 543.273 170.258L547.281 164.383C547.287 164.336 547.28 164.288 547.26 164.245C547.24 164.202 547.208 164.166 547.168 164.141C547.132 164.122 547.092 164.113 547.051 164.113C547.01 164.113 546.97 164.122 546.934 164.141L541.917 171.543C541.248 172.498 540.2 172.889 539.538 172.445C538.877 172 538.87 170.843 539.538 169.887L544.255 162.963C544.253 162.923 544.243 162.885 544.224 162.85C544.206 162.815 544.18 162.784 544.148 162.761C544.095 162.725 544.031 162.711 543.968 162.721L539.618 168.925C538.95 169.881 537.901 170.271 537.24 169.834C536.578 169.396 536.572 168.225 537.24 167.27L541.79 160.594C541.787 160.567 541.787 160.54 541.79 160.513L542.05 160.143C542.085 160.096 542.103 160.039 542.101 159.98C542.099 159.921 542.077 159.865 542.039 159.821C542 159.777 541.948 159.747 541.89 159.737C541.833 159.727 541.774 159.738 541.723 159.766L537.814 165.507C537.146 166.462 536.117 166.853 535.476 166.442C534.835 166.032 534.848 164.861 535.476 163.905C539.151 158.522 542.605 152.929 546.834 147.99C548.237 146.362 549.82 144.895 551.103 143.192C551.622 142.492 552.175 141.818 552.76 141.173C553.381 140.5 554.036 139.72 554.764 138.946L557.123 136.638C557.958 135.85 558.88 135.11 559.795 134.303C560.256 133.892 560.75 133.515 561.258 133.145L562.802 131.994C563.316 131.591 563.857 131.22 564.412 130.864L566.082 129.753C567.218 129.007 568.42 128.354 569.623 127.634C570.825 126.914 572.095 126.321 573.364 125.655C574.634 124.989 575.95 124.431 577.273 123.859C579.945 122.728 582.618 121.665 585.404 120.77C588.19 119.875 590.935 119.06 593.675 118.347C595.051 118.004 596.414 117.674 597.763 117.378C599.113 117.082 600.436 116.799 601.772 116.571C604.445 116.066 606.963 115.669 609.389 115.332C611.814 114.996 614.112 114.747 616.243 114.552C619.19 114.256 621.822 114.094 624 114Z" fill="#FFB287"/>
<path d="M519 220V211L521 217.994L519 220Z" fill="#1A8AA8"/>
<path d="M500 184L497.39 193C496.993 190.833 496.424 188.689 495.687 186.58C495.475 185.996 495.249 185.372 495 184.77L500 184Z" fill="#D69D38"/>
<path d="M499.666 183.14C499.096 184.269 498.073 185.16 496.804 185.632C495.536 186.104 494.116 186.123 492.833 185.683L480.374 181.639C479.743 181.457 479.16 181.16 478.66 180.765C478.161 180.371 477.756 179.888 477.471 179.346C477.186 178.805 477.027 178.216 477.003 177.616C476.979 177.017 477.092 176.419 477.334 175.86C477.904 174.731 478.927 173.84 480.196 173.368C481.464 172.895 482.884 172.877 484.167 173.317L496.626 177.361C497.257 177.543 497.84 177.84 498.34 178.235C498.839 178.629 499.244 179.112 499.529 179.654C499.814 180.195 499.973 180.784 499.997 181.384C500.021 181.983 499.908 182.581 499.666 183.14Z" fill="#E3AD4D"/>
<path d="M519 271V277.199C513.599 281.683 508.426 286.036 505 289V282.676C508.277 279.9 512.771 276.137 519 271Z" fill="#F1F2F2"/>
<path d="M519 281V287.89C513.599 292.881 508.426 297.712 505 301V293.97C508.277 290.857 512.771 286.668 519 281Z" fill="#F1F2F2"/>
<g style="mix-blend-mode:multiply">
<path d="M569 184.429C566.499 186.827 564.162 189.355 562 192L565.504 159L569 184.429Z" fill="#E0E0E0"/>
</g>
<g style="mix-blend-mode:multiply">
<path d="M556 200.704C553.322 205.302 550.983 210.08 549 215L552.79 172L556 200.704Z" fill="#E0E0E0"/>
</g>
<path d="M850.446 202.592C851.655 203.744 853.293 204.392 855 204.391V213H845V185.294C844.989 183.894 845.267 182.505 845.818 181.208C846.369 179.911 847.183 178.73 848.212 177.733C849.099 176.872 850.155 176.188 851.32 175.718C852.485 175.249 853.736 175.005 855 175L852.639 183.508L848.584 198.227C848.578 199.036 848.74 199.838 849.059 200.587C849.379 201.336 849.85 202.017 850.446 202.592Z" fill="#C13B25"/>
<path d="M865.997 206V184.075C866.029 182.764 865.82 181.46 865.382 180.24C864.944 179.019 864.286 177.906 863.448 176.967C862.609 176.028 861.607 175.282 860.499 174.772C859.392 174.263 858.202 174 857 174C855.798 174 854.608 174.263 853.501 174.772C852.393 175.282 851.391 176.028 850.552 176.967C849.714 177.906 849.056 179.019 848.618 180.24C848.18 181.46 847.971 182.764 848.003 184.075V206H865.997Z" fill="#EF4B25"/>
<path d="M844 195H836V200H844V195Z" fill="#F1F2F2"/>
</g>
<defs>
<linearGradient id="paint0_linear" x1="480" y1="-121" x2="480" y2="457" gradientUnits="userSpaceOnUse">
<stop stop-color="white"/>
<stop offset="1" stop-color="#EDEDED"/>
</linearGradient>
<clipPath id="clip0">
<rect width="1440" height="2771" fill="white" transform="translate(-240 -232)"/>
</clipPath>
</defs>
</svg>
