<svg width="36" height="36" viewBox="0 0 36 36" fill="none" xmlns="http://www.w3.org/2000/svg">
<path d="M28.6216 22.2675C27.8795 21.4982 26.9844 21.0869 26.0358 21.0869C25.0947 21.0869 24.192 21.4906 23.4193 22.2599L21.0017 24.6591C20.8028 24.5524 20.6039 24.4534 20.4126 24.3544C20.1372 24.2173 19.8771 24.0878 19.6552 23.9507C17.3906 22.5188 15.3326 20.6528 13.3588 18.2384C12.4024 17.0349 11.7598 16.022 11.2931 14.9937C11.9205 14.4225 12.5019 13.8284 13.068 13.2572C13.2823 13.0439 13.4965 12.823 13.7107 12.6098C15.3173 11.0103 15.3173 8.93862 13.7107 7.33916L11.6221 5.25986C11.3849 5.02375 11.1401 4.78002 10.9106 4.53629C10.4516 4.06407 9.96957 3.57661 9.47228 3.11962C8.73018 2.38844 7.84271 2 6.90934 2C5.97597 2 5.0732 2.38844 4.30815 3.11962C4.3005 3.12724 4.3005 3.12724 4.29285 3.13486L1.69165 5.74731C0.712381 6.72222 0.15389 7.9104 0.031481 9.28898C-0.152133 11.513 0.505816 13.5847 1.01075 14.9404C2.25015 18.2688 4.10158 21.3535 6.86344 24.6591C10.2144 28.6425 14.2462 31.7881 18.8519 34.0045C20.6115 34.8347 22.9602 35.8172 25.5844 35.9848C25.745 35.9924 25.9133 36 26.0664 36C27.8336 36 29.3179 35.3678 30.4807 34.1111C30.4884 34.0959 30.5037 34.0883 30.5113 34.073C30.9092 33.5932 31.3682 33.1591 31.8502 32.6944C32.1792 32.3822 32.5158 32.0547 32.8448 31.7119C33.6022 30.9274 34 30.0134 34 29.0766C34 28.1322 33.5945 27.2258 32.8218 26.4642L28.6216 22.2675ZM31.3606 30.2876C31.3529 30.2876 31.3529 30.2953 31.3606 30.2876C31.0622 30.6075 30.7562 30.897 30.4272 31.2168C29.9299 31.6891 29.425 32.1841 28.9506 32.7401C28.1779 33.5627 27.2675 33.9512 26.074 33.9512C25.9593 33.9512 25.8368 33.9512 25.7221 33.9436C23.4499 33.7988 21.3383 32.9153 19.7546 32.1613C15.4244 30.0744 11.6221 27.1116 8.46241 23.3566C5.85356 20.2263 4.10923 17.332 2.954 14.2245C2.2425 12.328 1.98238 10.8504 2.09713 9.45654C2.17364 8.56541 2.51792 7.82661 3.15291 7.19445L5.76176 4.59722C6.13663 4.24686 6.53446 4.05645 6.92464 4.05645C7.40663 4.05645 7.79681 4.34588 8.04163 4.58961C8.04928 4.59722 8.05693 4.60484 8.06458 4.61246C8.53126 5.0466 8.97499 5.49597 9.44168 5.97581C9.67885 6.21953 9.92366 6.46326 10.1685 6.71461L12.2571 8.79391C13.068 9.60126 13.068 10.3477 12.2571 11.155C12.0352 11.3759 11.821 11.5968 11.5991 11.81C10.9565 12.4651 10.3444 13.0744 9.67885 13.6685C9.66354 13.6837 9.64824 13.6913 9.64059 13.7065C8.98264 14.3616 9.10505 15.0013 9.24276 15.4355C9.25041 15.4583 9.25807 15.4812 9.26572 15.504C9.80891 16.8141 10.574 18.0479 11.7368 19.5179L11.7445 19.5255C13.8561 22.1151 16.0824 24.1335 18.5382 25.6797C18.8519 25.8777 19.1732 26.0376 19.4792 26.19C19.7546 26.3271 20.0148 26.4565 20.2366 26.5936C20.2672 26.6089 20.2978 26.6317 20.3284 26.647C20.5886 26.7764 20.8334 26.8374 21.0858 26.8374C21.7208 26.8374 22.1187 26.4413 22.2487 26.3118L24.8652 23.707C25.1253 23.448 25.5385 23.1358 26.0205 23.1358C26.4948 23.1358 26.885 23.4328 27.1221 23.6918C27.1298 23.6994 27.1298 23.6994 27.1374 23.707L31.3529 27.9037C32.1409 28.6806 32.1409 29.4803 31.3606 30.2876Z" fill="#EA1E26"/>
<path d="M19.7782 8.87565C21.613 9.18382 23.2798 10.0523 24.6104 11.383C25.941 12.7137 26.8024 14.3806 27.1175 16.2156C27.1945 16.6778 27.5937 17 28.0489 17C28.105 17 28.154 16.993 28.21 16.986C28.7282 16.9019 29.0714 16.4117 28.9873 15.8934C28.6092 13.6732 27.5587 11.6491 25.955 10.0453C24.3513 8.44142 22.3274 7.39086 20.1074 7.01266C19.5891 6.92861 19.1059 7.2718 19.0149 7.78307C18.9238 8.29434 19.26 8.79161 19.7782 8.87565Z" fill="#EA1E26"/>
<path d="M35.9844 15.8193C35.311 11.8683 33.4498 8.27316 30.5898 5.41214C27.7298 2.55113 24.1359 0.689202 20.1864 0.0155777C19.6341 -0.0828169 19.112 0.295624 19.0137 0.848147C18.9229 1.40824 19.2936 1.93049 19.8535 2.02888C23.3793 2.62682 26.5949 4.29953 29.1522 6.85022C31.7096 9.40848 33.3741 12.6252 33.9718 16.1523C34.0551 16.6518 34.4863 17 34.9781 17C35.0387 17 35.0916 16.9924 35.1522 16.9849C35.7045 16.9016 36.0828 16.3718 35.9844 15.8193Z" fill="#EA1E26"/>
</svg>
