<?xml version="1.0"?>
<svg xmlns="http://www.w3.org/2000/svg" xmlns:xlink="http://www.w3.org/1999/xlink" version="1.1" id="Capa_1" x="0px" y="0px" viewBox="0 0 511.996 511.996" style="enable-background:new 0 0 511.996 511.996;" xml:space="preserve" width="512px" height="512px"><g><g>
	<g>
		<path d="M466.736,258.284c-3.199-0.241-6.443-0.363-9.641-0.363c-30.067,0-59.019,10.586-81.945,29.884    c-38.234-6.834-79.932-6.741-118.485,3.346c-4.008,1.049-6.407,5.148-5.358,9.155c1.048,4.008,5.142,6.403,9.155,5.358    c37.499-9.813,80.516-9.562,115.349-2.456c2.319,0.474,4.73-0.177,6.496-1.755c22.453-20.056,52.328-30.544,83.299-28.208    c3.622,0.273,6.459,3.384,6.459,7.08v27.746c0,4.144,3.358,7.501,7.501,7.501c4.144,0,7.501-3.357,7.501-7.501v-27.746    C487.068,268.826,478.137,259.145,466.736,258.284z" data-original="#000000" class="active-path" data-old_color="#000000" fill="#FB0000"/>
	</g>
</g><g>
	<g>
		<path d="M479.568,335.575c-4.144,0-7.501,3.357-7.501,7.501v125.668c0,10.289-8.644,13.894-10.734,14.614    c-99.351,17.558-177.805,14.983-226.15,9.721c-36.496-3.972-74.145-12.386-81.536-15.694c-1.65-0.74-3.492-0.852-5.192-0.35    c-1.684,0.408-36.769,8.468-72.926-8.229c-9.425-4.352-17.087-11.866-21.572-21.158c-4.321-8.953-10.033-24.026-12.705-44.99    c-0.524-4.11-4.281-7.019-8.389-6.492c-4.109,0.523-7.017,4.279-6.492,8.389c2.926,22.968,9.27,39.657,14.076,49.615    c5.993,12.416,16.22,22.452,28.793,28.258c27.055,12.495,58.986,14.251,80.806,9.609c45.881,14.657,111.52,19.959,160.514,19.959    c75.197-0.002,149.314-12.518,154.742-14.156c8.084-2.429,21.766-11.291,21.766-29.096V343.076    C487.069,338.933,483.711,335.575,479.568,335.575z" data-original="#000000" class="active-path" data-old_color="#000000" fill="#FB0000"/>
	</g>
</g><g>
	<g>
		<path d="M304.832,76.731c-6.141-9.986-15.773-10.834-26.75-10.523c6.885-11.937,12.74-20.144,12.74-33.999    c0-7.878-2.574-14.406-7.652-19.406C266.102-4,224.165,0.566,166.963,0.566c-53.085,0-64.118,63.644-61.525,116.465    c0.287,5.851-1.256,11.56-4.465,16.511c-14.629,22.586-4.091,37.833-19.558,64.603c-35.321,61.142-54.325,118.388-56.482,170.143    c-0.178,4.263,3.228,7.813,7.5,7.813c3.998,0,7.32-3.156,7.488-7.189c2.056-49.31,20.388-104.242,54.488-163.267    c16.974-29.379,7.57-46.063,19.158-63.95c4.93-7.606,7.301-16.392,6.858-25.404c-2.073-42.203,4.33-100.727,46.539-100.727    c65.96,0,108.856-5.059,108.856,16.642c0,11.884-6.759,18.103-15.935,36.023c-27.675,4.677-36.107,10.406-49.088,5.294    c-4.478-1.763-6.823-6.251-5.458-10.442c0.336-0.307,0.393-6.223,10.046-7.203l20.207-2.275c4.117-0.464,7.078-4.178,6.615-8.293    c-0.464-4.118-4.187-7.077-8.293-6.615l-20.124,2.267c-32.396,3.281-33.629,49.605,7.744,49.605    c14.86,0,43.01-11.371,65.325-9.128c6.614,1.003,7.581,7.756,5.614,13.536c-2.117,6.249-34.17,16.552-40.427,18.622    c-23.095,7.64-26.587,21.892-58.951,41.052c-12.628,7.475-19.542,21.362-19.271,31.664c0.025,0.937,2.42,93.095-5.979,149.75    l-8.741,10.044c-2.655,3.05-2.414,7.656,0.545,10.414c2.961,2.756,7.57,2.67,10.427-0.194    c11.107-11.145,30.201-27.025,58.085-39.389c3.788-1.68,5.496-6.111,3.817-9.898c-1.68-3.788-6.111-5.494-9.898-3.817    c-14.795,6.561-27.306,14.057-37.629,21.417c6.339-56.166,4.556-131.609,4.38-138.373c0.579-7.65,5.012-14.625,11.906-18.707    c34.014-20.134,36.792-33.355,56.022-39.719c26.644-8.814,45.82-15.984,49.919-28.031    C309.473,91.593,308.801,83.182,304.832,76.731z" data-original="#000000" class="active-path" data-old_color="#000000" fill="#FB0000"/>
	</g>
</g></g> </svg>
